<svg width="22" height="13" viewBox="0 0 22 13" fill="none" xmlns="http://www.w3.org/2000/svg">
<path d="M0.36 3.504H2.184V12H0.36V3.504ZM1.272 -9.53674e-07C1.58133 -9.53674e-07 1.83733 0.101333 2.04 0.304C2.24267 0.506667 2.344 0.762666 2.344 1.072C2.344 1.37067 2.24267 1.62667 2.04 1.84C1.83733 2.04267 1.58133 2.144 1.272 2.144C0.973333 2.144 0.717333 2.04267 0.504 1.84C0.301333 1.62667 0.2 1.37067 0.2 1.072C0.2 0.762666 0.301333 0.506667 0.504 0.304C0.717333 0.101333 0.973333 -9.53674e-07 1.272 -9.53674e-07ZM9.75488 5.568C9.38154 5.344 8.97088 5.168 8.52288 5.04C8.08554 4.90133 7.68021 4.832 7.30688 4.832C6.94421 4.832 6.64554 4.90133 6.41088 5.04C6.17621 5.17867 6.05888 5.408 6.05888 5.728C6.05888 5.99467 6.16554 6.208 6.37888 6.368C6.60288 6.51733 6.88554 6.64533 7.22688 6.752C7.56821 6.85867 7.93088 6.97067 8.31488 7.088C8.69888 7.20533 9.06154 7.36 9.40288 7.552C9.75488 7.73333 10.0375 7.984 10.2509 8.304C10.4642 8.624 10.5709 9.04533 10.5709 9.568C10.5709 10.144 10.4162 10.6187 10.1069 10.992C9.80821 11.3547 9.40821 11.6267 8.90688 11.808C8.41621 11.9787 7.88288 12.064 7.30688 12.064C6.68821 12.064 6.06954 11.9627 5.45088 11.76C4.83221 11.5573 4.30954 11.264 3.88288 10.88L4.53888 9.632C4.91221 9.96267 5.36554 10.224 5.89887 10.416C6.43221 10.5973 6.92821 10.688 7.38688 10.688C7.65354 10.688 7.88821 10.656 8.09088 10.592C8.30421 10.5173 8.46954 10.4107 8.58688 10.272C8.71488 10.1333 8.77888 9.952 8.77888 9.728C8.77888 9.42933 8.67221 9.19467 8.45888 9.024C8.24554 8.85333 7.96821 8.71467 7.62688 8.608C7.28554 8.49067 6.92288 8.37867 6.53888 8.272C6.15488 8.15467 5.79221 8.00533 5.45088 7.824C5.12021 7.64267 4.84821 7.39733 4.63488 7.088C4.42154 6.77867 4.31488 6.368 4.31488 5.856C4.31488 5.28 4.46421 4.816 4.76288 4.464C5.06154 4.10133 5.44554 3.84 5.91488 3.68C6.39488 3.50933 6.90688 3.424 7.45088 3.424C7.98421 3.424 8.51754 3.49867 9.05088 3.648C9.58421 3.79733 10.0429 4.00533 10.4269 4.272L9.75488 5.568ZM17.2705 5.568C16.8972 5.344 16.4865 5.168 16.0385 5.04C15.6012 4.90133 15.1958 4.832 14.8225 4.832C14.4598 4.832 14.1612 4.90133 13.9265 5.04C13.6918 5.17867 13.5745 5.408 13.5745 5.728C13.5745 5.99467 13.6812 6.208 13.8945 6.368C14.1185 6.51733 14.4012 6.64533 14.7425 6.752C15.0838 6.85867 15.4465 6.97067 15.8305 7.088C16.2145 7.20533 16.5772 7.36 16.9185 7.552C17.2705 7.73333 17.5532 7.984 17.7665 8.304C17.9798 8.624 18.0865 9.04533 18.0865 9.568C18.0865 10.144 17.9318 10.6187 17.6225 10.992C17.3238 11.3547 16.9238 11.6267 16.4225 11.808C15.9318 11.9787 15.3985 12.064 14.8225 12.064C14.2038 12.064 13.5852 11.9627 12.9665 11.76C12.3478 11.5573 11.8252 11.264 11.3985 10.88L12.0545 9.632C12.4278 9.96267 12.8812 10.224 13.4145 10.416C13.9478 10.5973 14.4438 10.688 14.9025 10.688C15.1692 10.688 15.4038 10.656 15.6065 10.592C15.8198 10.5173 15.9852 10.4107 16.1025 10.272C16.2305 10.1333 16.2945 9.952 16.2945 9.728C16.2945 9.42933 16.1878 9.19467 15.9745 9.024C15.7612 8.85333 15.4838 8.71467 15.1425 8.608C14.8012 8.49067 14.4385 8.37867 14.0545 8.272C13.6705 8.15467 13.3078 8.00533 12.9665 7.824C12.6358 7.64267 12.3638 7.39733 12.1505 7.088C11.9372 6.77867 11.8305 6.368 11.8305 5.856C11.8305 5.28 11.9798 4.816 12.2785 4.464C12.5772 4.10133 12.9612 3.84 13.4305 3.68C13.9105 3.50933 14.4225 3.424 14.9665 3.424C15.4998 3.424 16.0332 3.49867 16.5665 3.648C17.0998 3.79733 17.5585 4.00533 17.9425 4.272L17.2705 5.568ZM19.9381 3.504H21.7621V12H19.9381V3.504ZM20.8501 -9.53674e-07C21.1595 -9.53674e-07 21.4155 0.101333 21.6181 0.304C21.8208 0.506667 21.9221 0.762666 21.9221 1.072C21.9221 1.37067 21.8208 1.62667 21.6181 1.84C21.4155 2.04267 21.1595 2.144 20.8501 2.144C20.5515 2.144 20.2955 2.04267 20.0821 1.84C19.8795 1.62667 19.7781 1.37067 19.7781 1.072C19.7781 0.762666 19.8795 0.506667 20.0821 0.304C20.2955 0.101333 20.5515 -9.53674e-07 20.8501 -9.53674e-07Z" fill="white"/>
</svg>
